# xmcd
#
# Track frame offsets: 
#        150
#        19660
#        35905
#        51677
#        67727
#        84775
#        101412
#        123982
#        139800
#        152065
#        173840
#        196562
#
# Disc length: 3211 seconds
#
# Revision: 0
# Processed by: cddbd v1.5.2PL0 Copyright (c) Steve Scherf et al.
# Submitted via: ExactAudioCopy v0.99pb5
#
DISCID=960c890c
DTITLE=Onus B. Johnson - Box of Moonlight
DYEAR=2001
DGENRE=Bluegrass
TTITLE0=Endless Highway
TTITLE1=Dishes
TTITLE2=Soulmate
TTITLE3=The Race
TTITLE4=You and Your Barstool
TTITLE5=Spinnin Wheel
TTITLE6=Circles
TTITLE7=Breakfast on the Table
TTITLE8=Could
TTITLE9=Death Ballad
TTITLE10=Melody
TTITLE11=Turned Away
EXTD=
EXTT0=
EXTT1=
EXTT2=
EXTT3=
EXTT4=
EXTT5=
EXTT6=
EXTT7=
EXTT8=
EXTT9=
EXTT10=
EXTT11=
PLAYORDER=
